<svg width="600" height="583" viewBox="0 0 600 583" fill="none" xmlns="http://www.w3.org/2000/svg">
  <path
    d="M501.717 33.7177C547.936 65.3206 578.749 119.441 591.39 173.956C604.426 228.076 598.896 282.986 598.501 344.217C598.105 405.052 602.451 471.813 572.823 514.082C543.59 556.746 480.385 574.128 420.734 580.449C361.479 586.769 306.173 581.239 255.214 564.647C204.254 547.661 157.64 519.613 107.075 482.874C56.1151 446.136 1.59999 400.707 0.0198405 351.722C-1.16527 302.343 50.9796 249.408 92.4584 204.769C133.937 160.524 164.75 124.971 203.069 89.4179C240.992 53.8646 286.421 18.7063 339.751 5.67008C393.476 -7.36613 455.102 2.11475 501.717 33.7177Z"
    fill="url(#paint0_linear)"
  />
  <defs>
    <linearGradient
      id="paint0_linear"
      x1="300"
      y1="0"
      x2="300"
      y2="582.992"
      gradientUnits="userSpaceOnUse"
    >
      <stop stop-color="#FFF3C2" />
      <stop offset="1" stop-color="#FFD4C2" />
    </linearGradient>
  </defs>
</svg>
